<?xml version="1.0" encoding="iso-8859-1"?>
<!-- Generator: Adobe Illustrator 19.1.0, SVG Export Plug-In . SVG Version: 6.00 Build 0)  -->
<svg version="1.1" id="Capa_1" xmlns="http://www.w3.org/2000/svg" xmlns:xlink="http://www.w3.org/1999/xlink" x="0px" y="0px"
	 viewBox="0 0 357.824 357.824" style="enable-background:new 0 0 357.824 357.824;" xml:space="preserve">
<g>
	<path style="fill:rgba(0, 122, 255, 0.7);" d="M260.651,322.253L260.651,322.253c-6.917,0-13.993-0.671-21.034-2.029
		c-39.597-7.552-66.807-33.456-61.936-58.937c3.9-20.31,27.298-33.95,58.249-33.95c6.917,0,13.993,0.688,21.069,2.047
		c8.205,1.57,16.199,4.041,23.575,7.305l16.922-88.423l-130.614-25.004l-25.092,131.178c-3.882,20.31-27.28,33.968-58.231,33.968
		c-6.935,0-14.011-0.688-21.069-2.047c-18.034-3.459-34.339-10.958-45.861-21.122C3.782,253.911-1.917,240.465,0.571,227.425
		c3.882-20.31,27.298-33.933,58.266-33.933c6.899,0,13.975,0.671,21.034,2.029c8.223,1.57,16.199,4.041,23.592,7.305l30.562-159.8
		c0.441-2.4,1.835-4.5,3.847-5.876c1.994-1.341,4.464-1.888,6.847-1.412l205.679,39.35c2.382,0.459,4.482,1.835,5.841,3.829
		c1.376,2.029,1.888,4.482,1.412,6.864l-38.75,202.52C315.053,308.596,291.619,322.253,260.651,322.253z M235.929,245.618
		c-21.228,0-38.168,8.046-40.303,19.093c-2.47,13.005,16.375,31.621,47.396,37.55c27.81,5.258,55.231-3.335,57.913-17.416
		l37.021-193.538L150.259,55.415l-31.162,162.888c-0.565,2.947-2.541,5.435-5.294,6.652c-2.77,1.218-5.929,1.006-8.488-0.565
		c-8.364-5.117-18.352-8.911-28.904-10.923c-27.739-5.258-55.196,3.335-57.913,17.381c-1.218,6.352,2.506,13.887,10.199,20.663
		c8.982,7.923,22.534,14.081,37.197,16.887c27.704,5.311,55.231-3.282,57.913-17.381l26.804-140.142
		c0.476-2.4,1.853-4.535,3.864-5.894c1.994-1.341,4.447-1.853,6.847-1.412l148.595,28.427c2.382,0.459,4.482,1.835,5.841,3.829
		c1.376,2.029,1.888,4.482,1.412,6.864l-20.945,109.456c-0.565,2.947-2.541,5.435-5.276,6.652c-2.753,1.218-5.894,1.006-8.47-0.547
		c-8.382-5.153-18.387-8.911-28.921-10.94C247.629,246.183,241.7,245.618,235.929,245.618z"/>
	<g>
	</g>
	<g>
	</g>
	<g>
	</g>
	<g>
	</g>
	<g>
	</g>
	<g>
	</g>
	<g>
	</g>
	<g>
	</g>
	<g>
	</g>
	<g>
	</g>
	<g>
	</g>
	<g>
	</g>
	<g>
	</g>
	<g>
	</g>
	<g>
	</g>
</g>
<g>
</g>
<g>
</g>
<g>
</g>
<g>
</g>
<g>
</g>
<g>
</g>
<g>
</g>
<g>
</g>
<g>
</g>
<g>
</g>
<g>
</g>
<g>
</g>
<g>
</g>
<g>
</g>
<g>
</g>
</svg>
